<?xml version="1.0" encoding="utf-8"?>
<!-- Generator: Adobe Illustrator 27.5.0, SVG Export Plug-In . SVG Version: 6.00 Build 0)  -->
<svg version="1.1" id="Layer_1" xmlns="http://www.w3.org/2000/svg" xmlns:xlink="http://www.w3.org/1999/xlink" x="0px" y="0px"
	 viewBox="0 0 300 300" style="enable-background:new 0 0 300 300;" xml:space="preserve">
<style type="text/css">
	.st0{fill:#8CEEEE;}
</style>
<g>
	<g>
		<g>
			<polygon class="st0" points="71.6,34.2 66.4,25.2 0.2,140 10.5,140 			"/>
			<polygon class="st0" points="289.8,140 300.2,140 234.3,26 229.1,34.9 			"/>
			<polygon class="st0" points="211.8,24.1 217,15.2 84.2,15.2 89.3,24.1 			"/>
			<polygon class="st0" points="289.8,160.4 228.7,266.3 233.9,275.2 300.2,160.4 			"/>
			<polygon class="st0" points="88.6,276.3 83.4,285.2 216.1,285.2 211,276.3 			"/>
			<polygon class="st0" points="10.5,160.4 0.2,160.4 66,274.5 71.2,265.6 			"/>
		</g>
	</g>
	<g>
		<g>
			<path class="st0" d="M139,15.9l10.1,84c0.1,0.5,0.4,0.9,1,1c0.6,0.1,1.1-0.4,1.2-1l10.1-84H139z"/>
			<path class="st0" d="M161.3,284.5l-10.1-84c-0.1-0.5-0.4-0.9-1-1c-0.6-0.1-1.1,0.4-1.2,1l-10.1,84H161.3z"/>
		</g>
		<g>
			<path class="st0" d="M261.8,74.7l-68.3,50c-0.4,0.3-0.6,0.8-0.4,1.3c0.2,0.6,0.9,0.8,1.4,0.6l78.2-32.4L261.8,74.7z"/>
			<path class="st0" d="M38.6,225.8l68.3-50c0.4-0.3,0.6-0.8,0.4-1.3c-0.2-0.6-0.9-0.8-1.4-0.6l-78.2,32.4L38.6,225.8z"/>
		</g>
		<g>
			<path class="st0" d="M270.7,210.5l-77-35c-0.4-0.2-1-0.1-1.3,0.3c-0.4,0.5-0.3,1.2,0.2,1.5l66.6,52.2L270.7,210.5z"/>
			<path class="st0" d="M29.6,90l77,35c0.4,0.2,1,0.1,1.3-0.3c0.4-0.5,0.3-1.2-0.2-1.5L41.2,71L29.6,90z"/>
		</g>
	</g>
	<path class="st0" d="M152.7,145.8l2.5,4.4l-2.5,4.4h-5.1l-2.5-4.4l2.5-4.4H152.7 M161.6,130.3h-22.9l-11.5,19.9l11.5,19.9h22.9
		l11.5-19.9L161.6,130.3L161.6,130.3z"/>
</g>
</svg>
